# Blender v2.83.2 OBJ File: ''
# www.blender.org
mtllib City.mtl
o Cube_Cube.001
v -1.000000 -0.005609 3.474761
v -1.000000 2.973262 3.474761
v -1.000000 -0.005609 -1.492617
v -1.000000 1.994391 -1.492617
v 1.000000 -0.005609 3.474761
v 1.000000 2.961868 3.474761
v 1.000000 -0.005609 -1.492617
v 1.000000 1.994391 -1.492617
v -1.000000 -0.005609 1.510985
v -1.000000 1.994391 1.510985
v 1.000000 -0.005609 1.510985
v 1.000000 1.994391 1.510985
v -0.019428 2.956751 -1.492617
v -0.016470 2.956751 1.510985
v -1.000000 1.994391 1.510985
v -0.016470 2.956751 1.510985
v -1.000000 3.988060 2.483911
v 1.000000 3.988060 2.496240
v -1.000000 2.955535 1.509816
v 1.000000 2.962181 1.511577
vt 0.375000 0.098834
vt 0.625000 0.098834
vt 0.625000 0.250000
vt 0.375000 0.250000
vt 0.625000 0.372571
vt 0.625000 0.500000
vt 0.375000 0.500000
vt 0.375000 0.651166
vt 0.625000 0.651166
vt 0.625000 0.668747
vt 0.625000 0.704723
vt 0.625000 0.750000
vt 0.375000 0.750000
vt 0.625000 1.000000
vt 0.375000 1.000000
vt 0.125000 0.651166
vt 0.125000 0.750000
vt 0.747311 0.651166
vt 0.752429 0.500000
vt 0.125000 0.500000
vt 0.375000 0.000000
vt 0.625000 0.000000
vt 0.625000 0.045897
vt 0.625000 0.079825
vt 0.875000 0.500000
vt 0.875000 0.651166
vt 0.875000 0.704103
vt 0.875000 0.750000
vt 0.875000 0.670175
vn -1.0000 0.0000 0.0000
vn 0.0000 0.0000 -1.0000
vn 1.0000 0.0000 0.0000
vn 0.0000 0.0000 1.0000
vn 0.0000 -1.0000 0.0000
vn 0.0006 0.0006 -1.0000
vn 0.6870 0.7267 -0.0003
vn -0.6999 0.7142 0.0003
vn -0.0002 0.6944 0.7196
vn 0.0012 -0.0012 -1.0000
vn 0.0014 0.6889 -0.7248
usemtl None
s off
f 9/1/1 10/2/1 4/3/1 3/4/1
f 3/4/2 4/3/2 13/5/2 8/6/2 7/7/2
f 11/8/3 12/9/3 20/10/3 18/11/3 6/12/3 5/13/3
f 5/13/4 6/12/4 2/14/4 1/15/4
f 9/16/5 11/8/5 5/13/5 1/17/5
f 12/9/6 14/18/6 20/10/6
f 8/6/7 13/19/7 14/18/7 12/9/7
f 3/20/5 7/7/5 11/8/5 9/16/5
f 7/7/3 8/6/3 12/9/3 11/8/3
f 1/21/1 2/22/1 17/23/1 19/24/1 10/2/1 9/1/1
f 14/18/8 13/19/8 4/25/8 10/26/8
f 18/11/9 17/27/9 2/28/9 6/12/9
f 19/29/10 14/18/10 10/26/10
f 20/10/11 14/18/11 19/29/11 17/27/11 18/11/11
l 10 15
l 14 16
